<svg width="253" height="355" viewBox="0 0 253 355" fill="none" xmlns="http://www.w3.org/2000/svg">
<path opacity="0.1" d="M0 355V306.413L120.523 204.113C145.083 183.441 162.079 166.35 171.513 152.84C181.109 139.331 185.907 124.844 185.907 109.381C185.907 92.6158 180.621 79.3501 170.049 69.5839C159.477 59.8177 145.977 54.9347 129.55 54.9347C114.261 54.9347 100.517 59.0853 88.3182 67.3865C76.1196 75.6878 62.8637 89.0349 48.5506 107.428L5.12343 73.4904C16.9968 56.7251 28.4635 43.2967 39.5236 33.205C50.7464 22.9505 64.1649 14.8934 79.7792 9.0337C95.5561 3.01123 113.61 0 133.941 0C168.26 0 196.073 9.68478 217.38 29.0543C238.687 48.4239 249.34 73.8973 249.34 105.475C249.34 116.38 248.039 126.553 245.437 135.994C242.997 145.434 239.663 154.143 235.434 162.118C231.205 169.931 224.943 178.395 216.648 187.51C208.516 196.463 200.221 204.764 191.763 212.414C183.468 220.064 172.408 229.586 158.582 240.98L86.6104 301.042H253V355H0Z" fill="white"/>
</svg>
