<svg width="30" height="21" viewBox="0 0 30 21" fill="none" xmlns="http://www.w3.org/2000/svg">
<path d="M29.6837 4.52667C29.6837 4.52667 29.3909 2.47333 28.4889 1.56333C27.3526 0.373333 26.0757 0.373333 25.4783 0.303333C21.2965 0 15.0059 0 15.0059 0H14.9941C14.9941 0 8.70363 0 4.49824 0.303333C3.91254 0.373333 2.63566 0.373333 1.4877 1.56333C0.597422 2.47333 0.30457 4.52667 0.30457 4.52667C0.30457 4.52667 0 6.95333 0 9.36833V11.6317C0 14.0467 0.30457 16.4617 0.30457 16.4617C0.30457 16.4617 0.597422 18.515 1.49941 19.425C2.63566 20.615 4.13508 20.58 4.80281 20.6967C7.20422 20.93 14.9941 21 14.9941 21C14.9941 21 21.2964 20.9883 25.49 20.685C26.0757 20.615 27.3526 20.615 28.5006 19.425C29.4026 18.515 29.6954 16.4617 29.6954 16.4617C29.6954 16.4617 30 14.0467 30 11.6317V9.36833C29.9883 6.95333 29.6837 4.52667 29.6837 4.52667ZM11.9017 14.3733V5.985L20.0078 10.1967L11.9016 14.3733H11.9017Z" fill="url(#paint0_linear)"/>
<defs>
<linearGradient id="paint0_linear" x1="14.994" y1="0" x2="14.994" y2="21.0063" gradientUnits="userSpaceOnUse">
<stop stop-color="#E52D27"/>
<stop offset="1" stop-color="#BF171D"/>
</linearGradient>
</defs>
</svg>
