<?xml version="1.0" encoding="utf-8"?><svg xmlns="http://www.w3.org/2000/svg" xmlns:xlink="http://www.w3.org/1999/xlink"><symbol viewBox="0 0 344.96 344.96" id="check" xmlns="http://www.w3.org/2000/svg"><g data-name="Слой 2"><path d="M321.85 86.24l-40-23.11-23.1-40H212.5L172.48 0l-40 23.11H86.24l-23.11 40-40 23.1v46.21L0 172.48l23.11 40v46.21l40 23.11 23.11 40h46.21l40 23.1 40-23.11h46.21l23.11-40 40-23.11V212.5l23.11-40-23.11-40V86.24zM156.91 243.07a16.79 16.79 0 01-23.34 0l-50.45-50.44a16.19 16.19 0 010-22.89l13.35-13.35a16.19 16.19 0 0122.89 0l25.87 25.87 80.34-80.35a16.19 16.19 0 0122.89 0l13.35 13.35a16.19 16.19 0 010 22.89z" data-name="Capa 1"/></g></symbol><symbol viewBox="0 0 32 32" id="ion_document" xmlns="http://www.w3.org/2000/svg"><path d="M26.75 14H18a3 3 0 01-3-3V2.25a.25.25 0 00-.25-.25H9a4 4 0 00-4 4v20a4 4 0 004 4h14a4 4 0 004-4V14.25a.25.25 0 00-.25-.25z"/><path d="M26.201 11.787l-8.988-8.988a.125.125 0 00-.213.088V11a1 1 0 001 1h8.113a.125.125 0 00.088-.213z"/></symbol></svg>