<svg width="32" height="32" viewBox="0 0 32 32" fill="none" xmlns="http://www.w3.org/2000/svg">
<path d="M26.75 14H18C17.2044 14 16.4413 13.6839 15.8787 13.1213C15.3161 12.5587 15 11.7956 15 11V2.25C15 2.1837 14.9737 2.12011 14.9268 2.07322C14.8799 2.02634 14.8163 2 14.75 2H9C7.93913 2 6.92172 2.42143 6.17157 3.17157C5.42143 3.92172 5 4.93913 5 6V26C5 27.0609 5.42143 28.0783 6.17157 28.8284C6.92172 29.5786 7.93913 30 9 30H23C24.0609 30 25.0783 29.5786 25.8284 28.8284C26.5786 28.0783 27 27.0609 27 26V14.25C27 14.1837 26.9737 14.1201 26.9268 14.0732C26.8799 14.0263 26.8163 14 26.75 14Z" fill="#FF7B27"/>
<path d="M26.2012 11.7869L17.2131 2.7988C17.1956 2.78143 17.1734 2.7696 17.1492 2.76482C17.1251 2.76004 17.1 2.76252 17.0772 2.77194C17.0545 2.78135 17.035 2.7973 17.0212 2.81775C17.0075 2.83821 17.0001 2.86228 17 2.88693V11.0001C17 11.2653 17.1054 11.5196 17.2929 11.7072C17.4804 11.8947 17.7348 12.0001 18 12.0001H26.1131C26.1378 11.9999 26.1618 11.9926 26.1823 11.9788C26.2027 11.9651 26.2187 11.9456 26.2281 11.9228C26.2375 11.9 26.24 11.875 26.2352 11.8508C26.2304 11.8266 26.2186 11.8044 26.2012 11.7869Z" fill="#FF7B27"/>
</svg>
